<svg width="22" height="22" viewBox="0 0 22 22" fill="none" xmlns="http://www.w3.org/2000/svg">
    <path d="M10.55 11C11.3575 10.7911 12.1752 10.6242 13 10.5L14.09 10.37C14.3213 9.4818 14.6017 8.60712 14.93 7.75H14.82C13.6844 7.96575 12.565 8.25979 11.47 8.63C11.1227 9.40361 10.8156 10.1947 10.55 11Z" fill="#242748"/>
    <path d="M7.62 9.81C8 9.09 8.38 8.37 8.8 7.67C8.15 8.04 7.5 8.44 6.87 8.87C6.39 9.57 5.94 10.29 5.53 11.02C6.21 10.58 6.91 10.17 7.61 9.81" fill="#242748"/>
    <path d="M10.06 11.12C10.31 10.35 10.6 9.58 10.92 8.82C9.89324 9.18876 8.89118 9.62299 7.92 10.12C7.59 10.8 7.3 11.49 7.03 12.18C8.00389 11.754 9.00633 11.3965 10.03 11.11" fill="#242748"/>
    <path d="M14.76 7.34L15.12 7.28C15.4807 6.38437 15.8914 5.50967 16.35 4.66C15.2335 4.9241 14.1346 5.25809 13.06 5.66C12.5696 6.44854 12.1223 7.26306 11.72 8.1C12.7036 7.78318 13.7054 7.52605 14.72 7.33" fill="#242748"/>
    <path d="M3.68 14C3.89 13.44 4.13 12.87 4.4 12.3C3.95 12.63 3.51 12.98 3.09 13.3C2.71 14 2.36 14.61 2 15.24C2.53 14.81 3.08 14.4 3.64 14.02" fill="#242748"/>
    <path d="M6.51 12.43C6.75 11.77 7.01 11.11 7.31 10.43C6.55427 10.8461 5.82001 11.3 5.11 11.79C4.81 12.39 4.53 13 4.28 13.61C4.99954 13.1733 5.74416 12.7792 6.51 12.43Z" fill="#242748"/>
    <path d="M14.55 10.32C15.8612 10.214 17.1788 10.214 18.49 10.32C18.79 9.32 19.1 8.32 19.49 7.32H19.32C18.0302 7.32351 16.7427 7.43052 15.47 7.64C15.1288 8.51249 14.8383 9.40398 14.6 10.31" fill="#242748"/>
    <path d="M19.27 6.91H19.61C20.0018 5.90742 20.4664 4.93482 21 4C19.6206 4.05841 18.2489 4.23574 16.9 4.53C16.4153 5.39404 15.9812 6.28555 15.6 7.2C16.8112 7.01475 18.0347 6.92115 19.26 6.92" fill="#242748"/>
    <path d="M9.8 13.86C10.29 13.78 10.8 13.71 11.27 13.66C12.01 13.58 12.76 13.54 13.53 13.52C13.6283 12.6042 13.7853 11.6957 14 10.8L13.07 10.92C12.1702 11.0523 11.2788 11.2359 10.4 11.47C10.1559 12.255 9.95564 13.0528 9.8 13.86Z" fill="#242748"/>
    <path d="M3 16.3C3.13 15.78 3.29 15.24 3.47 14.71C2.81538 15.1667 2.18766 15.6609 1.59 16.19C1.37 16.69 1.17 17.19 1 17.66C1.63353 17.1598 2.30189 16.7053 3 16.3Z" fill="#242748"/>
    <path d="M9.35 13.94C9.49384 13.1504 9.68079 12.3692 9.91 11.6C8.86366 11.9051 7.84095 12.2862 6.85 12.74C6.61 13.42 6.41 14.1 6.25 14.74C7.26114 14.3862 8.29737 14.1088 9.35 13.91" fill="#242748"/>
</svg>
